# Tiled2Unity generated file. Do not modify by hand.
# Wavefront file for 'Room_House_mesh_0003.obj'

# Vertices (Count = 8)
v -464 -624 0
v -480 -624 0
v -480 -608 0
v -464 -608 0
v -448 -624 0
v -464 -624 0
v -464 -608 0
v -448 -608 0

# Texture cooridinates (Count = 8)
vt 0.2107438 0.7756654
vt 0.2272727 0.7756654
vt 0.2272727 0.8060837
vt 0.2107438 0.8060837
vt 0.2107438 0.8079848
vt 0.2272727 0.8079848
vt 0.2272727 0.838403
vt 0.2107438 0.838403

# Normal
vn 0 0 -1

# Mesh description
g Room_House_mesh_0003

# Faces
f 1/1/1 2/2/1 3/3/1 4/4/1
f 5/5/1 6/6/1 7/7/1 8/8/1

