# Tiled2Unity generated file. Do not modify by hand.
# Wavefront file for 'Room_House_mesh_0001.obj'

# Vertices (Count = 220)
v -576 -624 0
v -592 -624 0
v -592 -608 0
v -576 -608 0
v -560 -624 0
v -576 -624 0
v -576 -608 0
v -560 -608 0
v -544 -624 0
v -560 -624 0
v -560 -608 0
v -544 -608 0
v -528 -624 0
v -544 -624 0
v -544 -608 0
v -528 -608 0
v -512 -624 0
v -528 -624 0
v -528 -608 0
v -512 -608 0
v -496 -624 0
v -512 -624 0
v -512 -608 0
v -496 -608 0
v -480 -624 0
v -496 -624 0
v -496 -608 0
v -480 -608 0
v -464 -624 0
v -480 -624 0
v -480 -608 0
v -464 -608 0
v -448 -624 0
v -464 -624 0
v -464 -608 0
v -448 -608 0
v -576 -640 0
v -592 -640 0
v -592 -624 0
v -576 -624 0
v -560 -640 0
v -576 -640 0
v -576 -624 0
v -560 -624 0
v -544 -640 0
v -560 -640 0
v -560 -624 0
v -544 -624 0
v -528 -640 0
v -544 -640 0
v -544 -624 0
v -528 -624 0
v -512 -640 0
v -528 -640 0
v -528 -624 0
v -512 -624 0
v -496 -640 0
v -512 -640 0
v -512 -624 0
v -496 -624 0
v -480 -640 0
v -496 -640 0
v -496 -624 0
v -480 -624 0
v -464 -640 0
v -480 -640 0
v -480 -624 0
v -464 -624 0
v -448 -640 0
v -464 -640 0
v -464 -624 0
v -448 -624 0
v -576 -656 0
v -592 -656 0
v -592 -640 0
v -576 -640 0
v -560 -656 0
v -576 -656 0
v -576 -640 0
v -560 -640 0
v -544 -656 0
v -560 -656 0
v -560 -640 0
v -544 -640 0
v -528 -656 0
v -544 -656 0
v -544 -640 0
v -528 -640 0
v -512 -656 0
v -528 -656 0
v -528 -640 0
v -512 -640 0
v -496 -656 0
v -512 -656 0
v -512 -640 0
v -496 -640 0
v -480 -656 0
v -496 -656 0
v -496 -640 0
v -480 -640 0
v -464 -656 0
v -480 -656 0
v -480 -640 0
v -464 -640 0
v -448 -656 0
v -464 -656 0
v -464 -640 0
v -448 -640 0
v -576 -672 0
v -592 -672 0
v -592 -656 0
v -576 -656 0
v -560 -672 0
v -576 -672 0
v -576 -656 0
v -560 -656 0
v -544 -672 0
v -560 -672 0
v -560 -656 0
v -544 -656 0
v -528 -672 0
v -544 -672 0
v -544 -656 0
v -528 -656 0
v -512 -672 0
v -528 -672 0
v -528 -656 0
v -512 -656 0
v -496 -672 0
v -512 -672 0
v -512 -656 0
v -496 -656 0
v -480 -672 0
v -496 -672 0
v -496 -656 0
v -480 -656 0
v -464 -672 0
v -480 -672 0
v -480 -656 0
v -464 -656 0
v -448 -672 0
v -464 -672 0
v -464 -656 0
v -448 -656 0
v -576 -688 0
v -592 -688 0
v -592 -672 0
v -576 -672 0
v -560 -688 0
v -576 -688 0
v -576 -672 0
v -560 -672 0
v -544 -688 0
v -560 -688 0
v -560 -672 0
v -544 -672 0
v -528 -688 0
v -544 -688 0
v -544 -672 0
v -528 -672 0
v -512 -688 0
v -528 -688 0
v -528 -672 0
v -512 -672 0
v -496 -688 0
v -512 -688 0
v -512 -672 0
v -496 -672 0
v -480 -688 0
v -496 -688 0
v -496 -672 0
v -480 -672 0
v -464 -688 0
v -480 -688 0
v -480 -672 0
v -464 -672 0
v -448 -688 0
v -464 -688 0
v -464 -672 0
v -448 -672 0
v -576 -704 0
v -592 -704 0
v -592 -688 0
v -576 -688 0
v -560 -704 0
v -576 -704 0
v -576 -688 0
v -560 -688 0
v -544 -704 0
v -560 -704 0
v -560 -688 0
v -544 -688 0
v -528 -704 0
v -544 -704 0
v -544 -688 0
v -528 -688 0
v -512 -704 0
v -528 -704 0
v -528 -688 0
v -512 -688 0
v -496 -704 0
v -512 -704 0
v -512 -688 0
v -496 -688 0
v -480 -704 0
v -496 -704 0
v -496 -688 0
v -480 -688 0
v -464 -704 0
v -480 -704 0
v -480 -688 0
v -464 -688 0
v -448 -704 0
v -464 -704 0
v -464 -688 0
v -448 -688 0
v -512 -720 0
v -528 -720 0
v -528 -704 0
v -512 -704 0

# Texture cooridinates (Count = 40)
vt 0.1404959 0.904943
vt 0.1570248 0.904943
vt 0.1570248 0.9353612
vt 0.1404959 0.9353612
vt 0.2107438 0.4524715
vt 0.2272727 0.4524715
vt 0.2272727 0.4828897
vt 0.2107438 0.4828897
vt 0.1931818 0.4524715
vt 0.2097107 0.4524715
vt 0.2097107 0.4828897
vt 0.1931818 0.4828897
vt 0.1756198 0.4524715
vt 0.1921488 0.4524715
vt 0.1921488 0.4828897
vt 0.1756198 0.4828897
vt 0.2107438 0.4201521
vt 0.2272727 0.4201521
vt 0.2272727 0.4505703
vt 0.2107438 0.4505703
vt 0.1931818 0.4201521
vt 0.2097107 0.4201521
vt 0.2097107 0.4505703
vt 0.1931818 0.4505703
vt 0.1756198 0.4201521
vt 0.1921488 0.4201521
vt 0.1921488 0.4505703
vt 0.1756198 0.4505703
vt 0.2107438 0.3878327
vt 0.2272727 0.3878327
vt 0.2272727 0.418251
vt 0.2107438 0.418251
vt 0.1931818 0.3878327
vt 0.2097107 0.3878327
vt 0.2097107 0.418251
vt 0.1931818 0.418251
vt 0.1756198 0.3878327
vt 0.1921488 0.3878327
vt 0.1921488 0.418251
vt 0.1756198 0.418251

# Normal
vn 0 0 -1

# Mesh description
g Room_House_mesh_0001

# Faces
f 1/1/1 2/2/1 3/3/1 4/4/1
f 5/1/1 6/2/1 7/3/1 8/4/1
f 9/1/1 10/2/1 11/3/1 12/4/1
f 13/1/1 14/2/1 15/3/1 16/4/1
f 17/1/1 18/2/1 19/3/1 20/4/1
f 21/1/1 22/2/1 23/3/1 24/4/1
f 25/1/1 26/2/1 27/3/1 28/4/1
f 29/1/1 30/2/1 31/3/1 32/4/1
f 33/1/1 34/2/1 35/3/1 36/4/1
f 37/1/1 38/2/1 39/3/1 40/4/1
f 41/1/1 42/2/1 43/3/1 44/4/1
f 45/1/1 46/2/1 47/3/1 48/4/1
f 49/1/1 50/2/1 51/3/1 52/4/1
f 53/1/1 54/2/1 55/3/1 56/4/1
f 57/1/1 58/2/1 59/3/1 60/4/1
f 61/1/1 62/2/1 63/3/1 64/4/1
f 65/1/1 66/2/1 67/3/1 68/4/1
f 69/1/1 70/2/1 71/3/1 72/4/1
f 73/1/1 74/2/1 75/3/1 76/4/1
f 77/1/1 78/2/1 79/3/1 80/4/1
f 81/5/1 82/6/1 83/7/1 84/8/1
f 85/9/1 86/10/1 87/11/1 88/12/1
f 89/9/1 90/10/1 91/11/1 92/12/1
f 93/9/1 94/10/1 95/11/1 96/12/1
f 97/13/1 98/14/1 99/15/1 100/16/1
f 101/1/1 102/2/1 103/3/1 104/4/1
f 105/1/1 106/2/1 107/3/1 108/4/1
f 109/1/1 110/2/1 111/3/1 112/4/1
f 113/1/1 114/2/1 115/3/1 116/4/1
f 117/17/1 118/18/1 119/19/1 120/20/1
f 121/21/1 122/22/1 123/23/1 124/24/1
f 125/21/1 126/22/1 127/23/1 128/24/1
f 129/21/1 130/22/1 131/23/1 132/24/1
f 133/25/1 134/26/1 135/27/1 136/28/1
f 137/1/1 138/2/1 139/3/1 140/4/1
f 141/1/1 142/2/1 143/3/1 144/4/1
f 145/1/1 146/2/1 147/3/1 148/4/1
f 149/1/1 150/2/1 151/3/1 152/4/1
f 153/29/1 154/30/1 155/31/1 156/32/1
f 157/33/1 158/34/1 159/35/1 160/36/1
f 161/33/1 162/34/1 163/35/1 164/36/1
f 165/33/1 166/34/1 167/35/1 168/36/1
f 169/37/1 170/38/1 171/39/1 172/40/1
f 173/1/1 174/2/1 175/3/1 176/4/1
f 177/1/1 178/2/1 179/3/1 180/4/1
f 181/1/1 182/2/1 183/3/1 184/4/1
f 185/1/1 186/2/1 187/3/1 188/4/1
f 189/1/1 190/2/1 191/3/1 192/4/1
f 193/1/1 194/2/1 195/3/1 196/4/1
f 197/1/1 198/2/1 199/3/1 200/4/1
f 201/1/1 202/2/1 203/3/1 204/4/1
f 205/1/1 206/2/1 207/3/1 208/4/1
f 209/1/1 210/2/1 211/3/1 212/4/1
f 213/1/1 214/2/1 215/3/1 216/4/1
f 217/1/1 218/2/1 219/3/1 220/4/1

