# Tiled2Unity generated file. Do not modify by hand.
# Wavefront file for 'BaseWDT_mesh_0004.obj'

# Vertices (Count = 764)
v -768 -128 0
v -784 -128 0
v -784 -112 0
v -768 -112 0
v -752 -128 0
v -768 -128 0
v -768 -112 0
v -752 -112 0
v -736 -128 0
v -752 -128 0
v -752 -112 0
v -736 -112 0
v -784 -144 0
v -800 -144 0
v -800 -128 0
v -784 -128 0
v -768 -144 0
v -784 -144 0
v -784 -128 0
v -768 -128 0
v -752 -144 0
v -768 -144 0
v -768 -128 0
v -752 -128 0
v -736 -144 0
v -752 -144 0
v -752 -128 0
v -736 -128 0
v -720 -144 0
v -736 -144 0
v -736 -128 0
v -720 -128 0
v -544 -144 0
v -560 -144 0
v -560 -128 0
v -544 -128 0
v -528 -144 0
v -544 -144 0
v -544 -128 0
v -528 -128 0
v -512 -144 0
v -528 -144 0
v -528 -128 0
v -512 -128 0
v -800 -160 0
v -816 -160 0
v -816 -144 0
v -800 -144 0
v -784 -160 0
v -800 -160 0
v -800 -144 0
v -784 -144 0
v -768 -160 0
v -784 -160 0
v -784 -144 0
v -768 -144 0
v -752 -160 0
v -768 -160 0
v -768 -144 0
v -752 -144 0
v -736 -160 0
v -752 -160 0
v -752 -144 0
v -736 -144 0
v -720 -160 0
v -736 -160 0
v -736 -144 0
v -720 -144 0
v -704 -160 0
v -720 -160 0
v -720 -144 0
v -704 -144 0
v -560 -160 0
v -576 -160 0
v -576 -144 0
v -560 -144 0
v -544 -160 0
v -560 -160 0
v -560 -144 0
v -544 -144 0
v -528 -160 0
v -544 -160 0
v -544 -144 0
v -528 -144 0
v -512 -160 0
v -528 -160 0
v -528 -144 0
v -512 -144 0
v -496 -160 0
v -512 -160 0
v -512 -144 0
v -496 -144 0
v -992 -176 0
v -1008 -176 0
v -1008 -160 0
v -992 -160 0
v -976 -176 0
v -992 -176 0
v -992 -160 0
v -976 -160 0
v -960 -176 0
v -976 -176 0
v -976 -160 0
v -960 -160 0
v -800 -176 0
v -816 -176 0
v -816 -160 0
v -800 -160 0
v -784 -176 0
v -800 -176 0
v -800 -160 0
v -784 -160 0
v -768 -176 0
v -784 -176 0
v -784 -160 0
v -768 -160 0
v -736 -176 0
v -752 -176 0
v -752 -160 0
v -736 -160 0
v -720 -176 0
v -736 -176 0
v -736 -160 0
v -720 -160 0
v -704 -176 0
v -720 -176 0
v -720 -160 0
v -704 -160 0
v -576 -176 0
v -592 -176 0
v -592 -160 0
v -576 -160 0
v -560 -176 0
v -576 -176 0
v -576 -160 0
v -560 -160 0
v -544 -176 0
v -560 -176 0
v -560 -160 0
v -544 -160 0
v -528 -176 0
v -544 -176 0
v -544 -160 0
v -528 -160 0
v -512 -176 0
v -528 -176 0
v -528 -160 0
v -512 -160 0
v -496 -176 0
v -512 -176 0
v -512 -160 0
v -496 -160 0
v -480 -176 0
v -496 -176 0
v -496 -160 0
v -480 -160 0
v -1008 -192 0
v -1024 -192 0
v -1024 -176 0
v -1008 -176 0
v -992 -192 0
v -1008 -192 0
v -1008 -176 0
v -992 -176 0
v -976 -192 0
v -992 -192 0
v -992 -176 0
v -976 -176 0
v -960 -192 0
v -976 -192 0
v -976 -176 0
v -960 -176 0
v -944 -192 0
v -960 -192 0
v -960 -176 0
v -944 -176 0
v -800 -192 0
v -816 -192 0
v -816 -176 0
v -800 -176 0
v -784 -192 0
v -800 -192 0
v -800 -176 0
v -784 -176 0
v -720 -192 0
v -736 -192 0
v -736 -176 0
v -720 -176 0
v -704 -192 0
v -720 -192 0
v -720 -176 0
v -704 -176 0
v -576 -192 0
v -592 -192 0
v -592 -176 0
v -576 -176 0
v -560 -192 0
v -576 -192 0
v -576 -176 0
v -560 -176 0
v -544 -192 0
v -560 -192 0
v -560 -176 0
v -544 -176 0
v -512 -192 0
v -528 -192 0
v -528 -176 0
v -512 -176 0
v -496 -192 0
v -512 -192 0
v -512 -176 0
v -496 -176 0
v -480 -192 0
v -496 -192 0
v -496 -176 0
v -480 -176 0
v -1024 -208 0
v -1040 -208 0
v -1040 -192 0
v -1024 -192 0
v -1008 -208 0
v -1024 -208 0
v -1024 -192 0
v -1008 -192 0
v -992 -208 0
v -1008 -208 0
v -1008 -192 0
v -992 -192 0
v -976 -208 0
v -992 -208 0
v -992 -192 0
v -976 -192 0
v -960 -208 0
v -976 -208 0
v -976 -192 0
v -960 -192 0
v -944 -208 0
v -960 -208 0
v -960 -192 0
v -944 -192 0
v -928 -208 0
v -944 -208 0
v -944 -192 0
v -928 -192 0
v -800 -208 0
v -816 -208 0
v -816 -192 0
v -800 -192 0
v -704 -208 0
v -720 -208 0
v -720 -192 0
v -704 -192 0
v -576 -208 0
v -592 -208 0
v -592 -192 0
v -576 -192 0
v -560 -208 0
v -576 -208 0
v -576 -192 0
v -560 -192 0
v -496 -208 0
v -512 -208 0
v -512 -192 0
v -496 -192 0
v -480 -208 0
v -496 -208 0
v -496 -192 0
v -480 -192 0
v -1024 -224 0
v -1040 -224 0
v -1040 -208 0
v -1024 -208 0
v -1008 -224 0
v -1024 -224 0
v -1024 -208 0
v -1008 -208 0
v -992 -224 0
v -1008 -224 0
v -1008 -208 0
v -992 -208 0
v -960 -224 0
v -976 -224 0
v -976 -208 0
v -960 -208 0
v -944 -224 0
v -960 -224 0
v -960 -208 0
v -944 -208 0
v -928 -224 0
v -944 -224 0
v -944 -208 0
v -928 -208 0
v -576 -224 0
v -592 -224 0
v -592 -208 0
v -576 -208 0
v -480 -224 0
v -496 -224 0
v -496 -208 0
v -480 -208 0
v -1024 -240 0
v -1040 -240 0
v -1040 -224 0
v -1024 -224 0
v -1008 -240 0
v -1024 -240 0
v -1024 -224 0
v -1008 -224 0
v -944 -240 0
v -960 -240 0
v -960 -224 0
v -944 -224 0
v -928 -240 0
v -944 -240 0
v -944 -224 0
v -928 -224 0
v -1024 -256 0
v -1040 -256 0
v -1040 -240 0
v -1024 -240 0
v -928 -256 0
v -944 -256 0
v -944 -240 0
v -928 -240 0
v -992 -400 0
v -1008 -400 0
v -1008 -384 0
v -992 -384 0
v -976 -400 0
v -992 -400 0
v -992 -384 0
v -976 -384 0
v -960 -400 0
v -976 -400 0
v -976 -384 0
v -960 -384 0
v -1008 -416 0
v -1024 -416 0
v -1024 -400 0
v -1008 -400 0
v -992 -416 0
v -1008 -416 0
v -1008 -400 0
v -992 -400 0
v -976 -416 0
v -992 -416 0
v -992 -400 0
v -976 -400 0
v -960 -416 0
v -976 -416 0
v -976 -400 0
v -960 -400 0
v -944 -416 0
v -960 -416 0
v -960 -400 0
v -944 -400 0
v -1024 -432 0
v -1040 -432 0
v -1040 -416 0
v -1024 -416 0
v -1008 -432 0
v -1024 -432 0
v -1024 -416 0
v -1008 -416 0
v -992 -432 0
v -1008 -432 0
v -1008 -416 0
v -992 -416 0
v -976 -432 0
v -992 -432 0
v -992 -416 0
v -976 -416 0
v -960 -432 0
v -976 -432 0
v -976 -416 0
v -960 -416 0
v -944 -432 0
v -960 -432 0
v -960 -416 0
v -944 -416 0
v -928 -432 0
v -944 -432 0
v -944 -416 0
v -928 -416 0
v -1024 -448 0
v -1040 -448 0
v -1040 -432 0
v -1024 -432 0
v -1008 -448 0
v -1024 -448 0
v -1024 -432 0
v -1008 -432 0
v -992 -448 0
v -1008 -448 0
v -1008 -432 0
v -992 -432 0
v -960 -448 0
v -976 -448 0
v -976 -432 0
v -960 -432 0
v -944 -448 0
v -960 -448 0
v -960 -432 0
v -944 -432 0
v -928 -448 0
v -944 -448 0
v -944 -432 0
v -928 -432 0
v -1024 -464 0
v -1040 -464 0
v -1040 -448 0
v -1024 -448 0
v -1008 -464 0
v -1024 -464 0
v -1024 -448 0
v -1008 -448 0
v -944 -464 0
v -960 -464 0
v -960 -448 0
v -944 -448 0
v -928 -464 0
v -944 -464 0
v -944 -448 0
v -928 -448 0
v -1024 -480 0
v -1040 -480 0
v -1040 -464 0
v -1024 -464 0
v -928 -480 0
v -944 -480 0
v -944 -464 0
v -928 -464 0
v -288 -480 0
v -304 -480 0
v -304 -464 0
v -288 -464 0
v -272 -480 0
v -288 -480 0
v -288 -464 0
v -272 -464 0
v -256 -480 0
v -272 -480 0
v -272 -464 0
v -256 -464 0
v -304 -496 0
v -320 -496 0
v -320 -480 0
v -304 -480 0
v -288 -496 0
v -304 -496 0
v -304 -480 0
v -288 -480 0
v -272 -496 0
v -288 -496 0
v -288 -480 0
v -272 -480 0
v -256 -496 0
v -272 -496 0
v -272 -480 0
v -256 -480 0
v -240 -496 0
v -256 -496 0
v -256 -480 0
v -240 -480 0
v -320 -512 0
v -336 -512 0
v -336 -496 0
v -320 -496 0
v -304 -512 0
v -320 -512 0
v -320 -496 0
v -304 -496 0
v -288 -512 0
v -304 -512 0
v -304 -496 0
v -288 -496 0
v -272 -512 0
v -288 -512 0
v -288 -496 0
v -272 -496 0
v -256 -512 0
v -272 -512 0
v -272 -496 0
v -256 -496 0
v -240 -512 0
v -256 -512 0
v -256 -496 0
v -240 -496 0
v -224 -512 0
v -240 -512 0
v -240 -496 0
v -224 -496 0
v -320 -528 0
v -336 -528 0
v -336 -512 0
v -320 -512 0
v -304 -528 0
v -320 -528 0
v -320 -512 0
v -304 -512 0
v -288 -528 0
v -304 -528 0
v -304 -512 0
v -288 -512 0
v -256 -528 0
v -272 -528 0
v -272 -512 0
v -256 -512 0
v -240 -528 0
v -256 -528 0
v -256 -512 0
v -240 -512 0
v -224 -528 0
v -240 -528 0
v -240 -512 0
v -224 -512 0
v -320 -544 0
v -336 -544 0
v -336 -528 0
v -320 -528 0
v -304 -544 0
v -320 -544 0
v -320 -528 0
v -304 -528 0
v -240 -544 0
v -256 -544 0
v -256 -528 0
v -240 -528 0
v -224 -544 0
v -240 -544 0
v -240 -528 0
v -224 -528 0
v -320 -560 0
v -336 -560 0
v -336 -544 0
v -320 -544 0
v -224 -560 0
v -240 -560 0
v -240 -544 0
v -224 -544 0
v -864 -608 0
v -880 -608 0
v -880 -592 0
v -864 -592 0
v -848 -608 0
v -864 -608 0
v -864 -592 0
v -848 -592 0
v -832 -608 0
v -848 -608 0
v -848 -592 0
v -832 -592 0
v -880 -624 0
v -896 -624 0
v -896 -608 0
v -880 -608 0
v -864 -624 0
v -880 -624 0
v -880 -608 0
v -864 -608 0
v -848 -624 0
v -864 -624 0
v -864 -608 0
v -848 -608 0
v -832 -624 0
v -848 -624 0
v -848 -608 0
v -832 -608 0
v -816 -624 0
v -832 -624 0
v -832 -608 0
v -816 -608 0
v -896 -640 0
v -912 -640 0
v -912 -624 0
v -896 -624 0
v -880 -640 0
v -896 -640 0
v -896 -624 0
v -880 -624 0
v -864 -640 0
v -880 -640 0
v -880 -624 0
v -864 -624 0
v -848 -640 0
v -864 -640 0
v -864 -624 0
v -848 -624 0
v -832 -640 0
v -848 -640 0
v -848 -624 0
v -832 -624 0
v -816 -640 0
v -832 -640 0
v -832 -624 0
v -816 -624 0
v -800 -640 0
v -816 -640 0
v -816 -624 0
v -800 -624 0
v -896 -656 0
v -912 -656 0
v -912 -640 0
v -896 -640 0
v -880 -656 0
v -896 -656 0
v -896 -640 0
v -880 -640 0
v -864 -656 0
v -880 -656 0
v -880 -640 0
v -864 -640 0
v -832 -656 0
v -848 -656 0
v -848 -640 0
v -832 -640 0
v -816 -656 0
v -832 -656 0
v -832 -640 0
v -816 -640 0
v -800 -656 0
v -816 -656 0
v -816 -640 0
v -800 -640 0
v -896 -672 0
v -912 -672 0
v -912 -656 0
v -896 -656 0
v -880 -672 0
v -896 -672 0
v -896 -656 0
v -880 -656 0
v -816 -672 0
v -832 -672 0
v -832 -656 0
v -816 -656 0
v -800 -672 0
v -816 -672 0
v -816 -656 0
v -800 -656 0
v -896 -688 0
v -912 -688 0
v -912 -672 0
v -896 -672 0
v -800 -688 0
v -816 -688 0
v -816 -672 0
v -800 -672 0
v -608 -720 0
v -624 -720 0
v -624 -704 0
v -608 -704 0
v -592 -720 0
v -608 -720 0
v -608 -704 0
v -592 -704 0
v -576 -720 0
v -592 -720 0
v -592 -704 0
v -576 -704 0
v -624 -736 0
v -640 -736 0
v -640 -720 0
v -624 -720 0
v -608 -736 0
v -624 -736 0
v -624 -720 0
v -608 -720 0
v -592 -736 0
v -608 -736 0
v -608 -720 0
v -592 -720 0
v -576 -736 0
v -592 -736 0
v -592 -720 0
v -576 -720 0
v -560 -736 0
v -576 -736 0
v -576 -720 0
v -560 -720 0
v -848 -752 0
v -864 -752 0
v -864 -736 0
v -848 -736 0
v -640 -752 0
v -656 -752 0
v -656 -736 0
v -640 -736 0
v -624 -752 0
v -640 -752 0
v -640 -736 0
v -624 -736 0
v -608 -752 0
v -624 -752 0
v -624 -736 0
v -608 -736 0
v -592 -752 0
v -608 -752 0
v -608 -736 0
v -592 -736 0
v -576 -752 0
v -592 -752 0
v -592 -736 0
v -576 -736 0
v -560 -752 0
v -576 -752 0
v -576 -736 0
v -560 -736 0
v -544 -752 0
v -560 -752 0
v -560 -736 0
v -544 -736 0
v -640 -768 0
v -656 -768 0
v -656 -752 0
v -640 -752 0
v -624 -768 0
v -640 -768 0
v -640 -752 0
v -624 -752 0
v -608 -768 0
v -624 -768 0
v -624 -752 0
v -608 -752 0
v -576 -768 0
v -592 -768 0
v -592 -752 0
v -576 -752 0
v -560 -768 0
v -576 -768 0
v -576 -752 0
v -560 -752 0
v -544 -768 0
v -560 -768 0
v -560 -752 0
v -544 -752 0
v -640 -784 0
v -656 -784 0
v -656 -768 0
v -640 -768 0
v -624 -784 0
v -640 -784 0
v -640 -768 0
v -624 -768 0
v -560 -784 0
v -576 -784 0
v -576 -768 0
v -560 -768 0
v -544 -784 0
v -560 -784 0
v -560 -768 0
v -544 -768 0
v -640 -800 0
v -656 -800 0
v -656 -784 0
v -640 -784 0
v -544 -800 0
v -560 -800 0
v -560 -784 0
v -544 -784 0
v -592 -864 0
v -608 -864 0
v -608 -848 0
v -592 -848 0

# Texture cooridinates (Count = 32)
vt 0.3688017 0.2908745
vt 0.3853306 0.2908745
vt 0.3853306 0.3212928
vt 0.3688017 0.3212928
vt 0.3688017 0.1939163
vt 0.3853306 0.1939163
vt 0.3853306 0.2243346
vt 0.3688017 0.2243346
vt 0.3512397 0.2908745
vt 0.3677686 0.2908745
vt 0.3677686 0.3212928
vt 0.3512397 0.3212928
vt 0.3688017 0.2585551
vt 0.3853306 0.2585551
vt 0.3853306 0.2889734
vt 0.3688017 0.2889734
vt 0.3512397 0.2585551
vt 0.3677686 0.2585551
vt 0.3677686 0.2889734
vt 0.3512397 0.2889734
vt 0.3688017 0.2262357
vt 0.3853306 0.2262357
vt 0.3853306 0.256654
vt 0.3688017 0.256654
vt 0.3512397 0.2262357
vt 0.3677686 0.2262357
vt 0.3677686 0.256654
vt 0.3512397 0.256654
vt 0.08780992 0.4201521
vt 0.1043388 0.4201521
vt 0.1043388 0.4505703
vt 0.08780992 0.4505703

# Normal
vn 0 0 -1

# Mesh description
g BaseWDT_mesh_0004

# Faces
f 1/1/1 2/2/1 3/3/1 4/4/1
f 5/5/1 6/6/1 7/7/1 8/8/1
f 9/9/1 10/10/1 11/11/1 12/12/1
f 13/1/1 14/2/1 15/3/1 16/4/1
f 17/13/1 18/14/1 19/15/1 20/16/1
f 21/5/1 22/6/1 23/7/1 24/8/1
f 25/17/1 26/18/1 27/19/1 28/20/1
f 29/9/1 30/10/1 31/11/1 32/12/1
f 33/1/1 34/2/1 35/3/1 36/4/1
f 37/5/1 38/6/1 39/7/1 40/8/1
f 41/9/1 42/10/1 43/11/1 44/12/1
f 45/1/1 46/2/1 47/3/1 48/4/1
f 49/13/1 50/14/1 51/15/1 52/16/1
f 53/13/1 54/14/1 55/15/1 56/16/1
f 57/5/1 58/6/1 59/7/1 60/8/1
f 61/17/1 62/18/1 63/19/1 64/20/1
f 65/17/1 66/18/1 67/19/1 68/20/1
f 69/9/1 70/10/1 71/11/1 72/12/1
f 73/1/1 74/2/1 75/3/1 76/4/1
f 77/13/1 78/14/1 79/15/1 80/16/1
f 81/5/1 82/6/1 83/7/1 84/8/1
f 85/17/1 86/18/1 87/19/1 88/20/1
f 89/9/1 90/10/1 91/11/1 92/12/1
f 93/1/1 94/2/1 95/3/1 96/4/1
f 97/5/1 98/6/1 99/7/1 100/8/1
f 101/9/1 102/10/1 103/11/1 104/12/1
f 105/13/1 106/14/1 107/15/1 108/16/1
f 109/13/1 110/14/1 111/15/1 112/16/1
f 113/21/1 114/22/1 115/23/1 116/24/1
f 117/25/1 118/26/1 119/27/1 120/28/1
f 121/17/1 122/18/1 123/19/1 124/20/1
f 125/17/1 126/18/1 127/19/1 128/20/1
f 129/1/1 130/2/1 131/3/1 132/4/1
f 133/13/1 134/14/1 135/15/1 136/16/1
f 137/13/1 138/14/1 139/15/1 140/16/1
f 141/5/1 142/6/1 143/7/1 144/8/1
f 145/17/1 146/18/1 147/19/1 148/20/1
f 149/17/1 150/18/1 151/19/1 152/20/1
f 153/9/1 154/10/1 155/11/1 156/12/1
f 157/1/1 158/2/1 159/3/1 160/4/1
f 161/13/1 162/14/1 163/15/1 164/16/1
f 165/5/1 166/6/1 167/7/1 168/8/1
f 169/17/1 170/18/1 171/19/1 172/20/1
f 173/9/1 174/10/1 175/11/1 176/12/1
f 177/13/1 178/14/1 179/15/1 180/16/1
f 181/21/1 182/22/1 183/23/1 184/24/1
f 185/25/1 186/26/1 187/27/1 188/28/1
f 189/17/1 190/18/1 191/19/1 192/20/1
f 193/13/1 194/14/1 195/15/1 196/16/1
f 197/13/1 198/14/1 199/15/1 200/16/1
f 201/21/1 202/22/1 203/23/1 204/24/1
f 205/25/1 206/26/1 207/27/1 208/28/1
f 209/17/1 210/18/1 211/19/1 212/20/1
f 213/17/1 214/18/1 215/19/1 216/20/1
f 217/1/1 218/2/1 219/3/1 220/4/1
f 221/13/1 222/14/1 223/15/1 224/16/1
f 225/13/1 226/14/1 227/15/1 228/16/1
f 229/5/1 230/6/1 231/7/1 232/8/1
f 233/17/1 234/18/1 235/19/1 236/20/1
f 237/17/1 238/18/1 239/19/1 240/20/1
f 241/9/1 242/10/1 243/11/1 244/12/1
f 245/21/1 246/22/1 247/23/1 248/24/1
f 249/25/1 250/26/1 251/27/1 252/28/1
f 253/13/1 254/14/1 255/15/1 256/16/1
f 257/21/1 258/22/1 259/23/1 260/24/1
f 261/25/1 262/26/1 263/27/1 264/28/1
f 265/17/1 266/18/1 267/19/1 268/20/1
f 269/13/1 270/14/1 271/15/1 272/16/1
f 273/13/1 274/14/1 275/15/1 276/16/1
f 277/21/1 278/22/1 279/23/1 280/24/1
f 281/25/1 282/26/1 283/27/1 284/28/1
f 285/17/1 286/18/1 287/19/1 288/20/1
f 289/17/1 290/18/1 291/19/1 292/20/1
f 293/21/1 294/22/1 295/23/1 296/24/1
f 297/25/1 298/26/1 299/27/1 300/28/1
f 301/13/1 302/14/1 303/15/1 304/16/1
f 305/21/1 306/22/1 307/23/1 308/24/1
f 309/25/1 310/26/1 311/27/1 312/28/1
f 313/17/1 314/18/1 315/19/1 316/20/1
f 317/21/1 318/22/1 319/23/1 320/24/1
f 321/25/1 322/26/1 323/27/1 324/28/1
f 325/1/1 326/2/1 327/3/1 328/4/1
f 329/5/1 330/6/1 331/7/1 332/8/1
f 333/9/1 334/10/1 335/11/1 336/12/1
f 337/1/1 338/2/1 339/3/1 340/4/1
f 341/13/1 342/14/1 343/15/1 344/16/1
f 345/5/1 346/6/1 347/7/1 348/8/1
f 349/17/1 350/18/1 351/19/1 352/20/1
f 353/9/1 354/10/1 355/11/1 356/12/1
f 357/1/1 358/2/1 359/3/1 360/4/1
f 361/13/1 362/14/1 363/15/1 364/16/1
f 365/13/1 366/14/1 367/15/1 368/16/1
f 369/5/1 370/6/1 371/7/1 372/8/1
f 373/17/1 374/18/1 375/19/1 376/20/1
f 377/17/1 378/18/1 379/19/1 380/20/1
f 381/9/1 382/10/1 383/11/1 384/12/1
f 385/13/1 386/14/1 387/15/1 388/16/1
f 389/13/1 390/14/1 391/15/1 392/16/1
f 393/21/1 394/22/1 395/23/1 396/24/1
f 397/25/1 398/26/1 399/27/1 400/28/1
f 401/17/1 402/18/1 403/19/1 404/20/1
f 405/17/1 406/18/1 407/19/1 408/20/1
f 409/13/1 410/14/1 411/15/1 412/16/1
f 413/21/1 414/22/1 415/23/1 416/24/1
f 417/25/1 418/26/1 419/27/1 420/28/1
f 421/17/1 422/18/1 423/19/1 424/20/1
f 425/21/1 426/22/1 427/23/1 428/24/1
f 429/25/1 430/26/1 431/27/1 432/28/1
f 433/1/1 434/2/1 435/3/1 436/4/1
f 437/5/1 438/6/1 439/7/1 440/8/1
f 441/9/1 442/10/1 443/11/1 444/12/1
f 445/1/1 446/2/1 447/3/1 448/4/1
f 449/13/1 450/14/1 451/15/1 452/16/1
f 453/5/1 454/6/1 455/7/1 456/8/1
f 457/17/1 458/18/1 459/19/1 460/20/1
f 461/9/1 462/10/1 463/11/1 464/12/1
f 465/1/1 466/2/1 467/3/1 468/4/1
f 469/13/1 470/14/1 471/15/1 472/16/1
f 473/13/1 474/14/1 475/15/1 476/16/1
f 477/5/1 478/6/1 479/7/1 480/8/1
f 481/17/1 482/18/1 483/19/1 484/20/1
f 485/17/1 486/18/1 487/19/1 488/20/1
f 489/9/1 490/10/1 491/11/1 492/12/1
f 493/13/1 494/14/1 495/15/1 496/16/1
f 497/13/1 498/14/1 499/15/1 500/16/1
f 501/21/1 502/22/1 503/23/1 504/24/1
f 505/25/1 506/26/1 507/27/1 508/28/1
f 509/17/1 510/18/1 511/19/1 512/20/1
f 513/17/1 514/18/1 515/19/1 516/20/1
f 517/13/1 518/14/1 519/15/1 520/16/1
f 521/21/1 522/22/1 523/23/1 524/24/1
f 525/25/1 526/26/1 527/27/1 528/28/1
f 529/17/1 530/18/1 531/19/1 532/20/1
f 533/21/1 534/22/1 535/23/1 536/24/1
f 537/25/1 538/26/1 539/27/1 540/28/1
f 541/1/1 542/2/1 543/3/1 544/4/1
f 545/5/1 546/6/1 547/7/1 548/8/1
f 549/9/1 550/10/1 551/11/1 552/12/1
f 553/1/1 554/2/1 555/3/1 556/4/1
f 557/13/1 558/14/1 559/15/1 560/16/1
f 561/5/1 562/6/1 563/7/1 564/8/1
f 565/17/1 566/18/1 567/19/1 568/20/1
f 569/9/1 570/10/1 571/11/1 572/12/1
f 573/1/1 574/2/1 575/3/1 576/4/1
f 577/13/1 578/14/1 579/15/1 580/16/1
f 581/13/1 582/14/1 583/15/1 584/16/1
f 585/5/1 586/6/1 587/7/1 588/8/1
f 589/17/1 590/18/1 591/19/1 592/20/1
f 593/17/1 594/18/1 595/19/1 596/20/1
f 597/9/1 598/10/1 599/11/1 600/12/1
f 601/13/1 602/14/1 603/15/1 604/16/1
f 605/13/1 606/14/1 607/15/1 608/16/1
f 609/21/1 610/22/1 611/23/1 612/24/1
f 613/25/1 614/26/1 615/27/1 616/28/1
f 617/17/1 618/18/1 619/19/1 620/20/1
f 621/17/1 622/18/1 623/19/1 624/20/1
f 625/13/1 626/14/1 627/15/1 628/16/1
f 629/21/1 630/22/1 631/23/1 632/24/1
f 633/25/1 634/26/1 635/27/1 636/28/1
f 637/17/1 638/18/1 639/19/1 640/20/1
f 641/21/1 642/22/1 643/23/1 644/24/1
f 645/25/1 646/26/1 647/27/1 648/28/1
f 649/1/1 650/2/1 651/3/1 652/4/1
f 653/5/1 654/6/1 655/7/1 656/8/1
f 657/9/1 658/10/1 659/11/1 660/12/1
f 661/1/1 662/2/1 663/3/1 664/4/1
f 665/13/1 666/14/1 667/15/1 668/16/1
f 669/5/1 670/6/1 671/7/1 672/8/1
f 673/17/1 674/18/1 675/19/1 676/20/1
f 677/9/1 678/10/1 679/11/1 680/12/1
f 681/29/1 682/30/1 683/31/1 684/32/1
f 685/1/1 686/2/1 687/3/1 688/4/1
f 689/13/1 690/14/1 691/15/1 692/16/1
f 693/13/1 694/14/1 695/15/1 696/16/1
f 697/5/1 698/6/1 699/7/1 700/8/1
f 701/17/1 702/18/1 703/19/1 704/20/1
f 705/17/1 706/18/1 707/19/1 708/20/1
f 709/9/1 710/10/1 711/11/1 712/12/1
f 713/13/1 714/14/1 715/15/1 716/16/1
f 717/13/1 718/14/1 719/15/1 720/16/1
f 721/21/1 722/22/1 723/23/1 724/24/1
f 725/25/1 726/26/1 727/27/1 728/28/1
f 729/17/1 730/18/1 731/19/1 732/20/1
f 733/17/1 734/18/1 735/19/1 736/20/1
f 737/13/1 738/14/1 739/15/1 740/16/1
f 741/21/1 742/22/1 743/23/1 744/24/1
f 745/25/1 746/26/1 747/27/1 748/28/1
f 749/17/1 750/18/1 751/19/1 752/20/1
f 753/21/1 754/22/1 755/23/1 756/24/1
f 757/25/1 758/26/1 759/27/1 760/28/1
f 761/29/1 762/30/1 763/31/1 764/32/1

